<?xml version="1.0" encoding="UTF-8" standalone="no"?>
<!-- Created with Inkscape (http://www.inkscape.org/) -->

<svg
   width="191.88141mm"
   height="176.77049mm"
   viewBox="0 0 191.8814 176.77048"
   version="1.1"
   id="svg1"
   xml:space="preserve"
   inkscape:version="1.4.2 (ebf0e940, 2025-05-08)"
   sodipodi:docname="Logo Asisti2 negro.svg"
   xmlns:inkscape="http://www.inkscape.org/namespaces/inkscape"
   xmlns:sodipodi="http://sodipodi.sourceforge.net/DTD/sodipodi-0.dtd"
   xmlns="http://www.w3.org/2000/svg"
   xmlns:svg="http://www.w3.org/2000/svg"><sodipodi:namedview
     id="namedview1"
     pagecolor="#ffffff"
     bordercolor="#000000"
     borderopacity="0"
     inkscape:showpageshadow="false"
     inkscape:pageopacity="0.0"
     inkscape:pagecheckerboard="true"
     inkscape:deskcolor="#ffffff"
     inkscape:document-units="mm"
     inkscape:zoom="0.71285631"
     inkscape:cx="404.70989"
     inkscape:cy="298.79794"
     inkscape:window-width="1368"
     inkscape:window-height="885"
     inkscape:window-x="0"
     inkscape:window-y="25"
     inkscape:window-maximized="0"
     inkscape:current-layer="layer3"
     showborder="false"
     borderlayer="false"
     inkscape:antialias-rendering="true" /><defs
     id="defs1"><rect
       x="-49.951981"
       y="524.49579"
       width="967.81958"
       height="295.54922"
       id="rect1" /></defs><g
     inkscape:label="Verde"
     inkscape:groupmode="layer"
     id="layer1"
     style="fill:#99cc33;fill-opacity:1"
     transform="translate(-9.0481536,-13.449753)"><path
       style="fill:#ffffff;fill-opacity:1"
       d="m 106.90711,99.754781 c -1.58232,-0.20737 -1.60552,-0.37972 -0.13229,-0.9828 11.20897,-4.58844 19.27893,-20.45367 12.06926,-23.72771 -2.57472,-1.169226 -4.01205,-0.609586 -7.85151,3.05706 -8.27267,7.90033 -8.51681,8.03458 -16.38858,9.01149 -4.103929,0.50931 -8.894824,1.6451 -10.592551,2.51122 l -1.166913,0.59531 -1.277243,-1.42448 C 71.79863,77.900051 70.561259,67.132895 78.192841,59.431696 84.989359,52.57318 94.954893,53.071051 102.43119,60.642627 l 2.40325,2.433872 1.13178,-1.346807 c 15.25549,-18.153884 38.78322,1.155781 26.07391,21.399359 -7.41127,11.80479 -16.42437,17.767029 -25.13302,16.62573 z"
       id="path34" /></g><g
     inkscape:groupmode="layer"
     id="layer3"
     inkscape:label="Texto"
     transform="translate(-9.0481536,-13.449753)"><text
       xml:space="preserve"
       style="font-style:normal;font-variant:normal;font-weight:600;font-stretch:normal;font-size:55.8119px;font-family:'Be Vietnam Pro';-inkscape-font-specification:'Be Vietnam Pro Semi-Bold';text-align:start;writing-mode:lr-tb;direction:ltr;text-anchor:start;fill:#ffffff;fill-opacity:1;stroke-width:0.242055"
       x="7.3738647"
       y="189.66222"
       id="text2"><tspan
         sodipodi:role="line"
         id="tspan1"
         style="font-style:normal;font-variant:normal;font-weight:bold;font-stretch:normal;font-size:55.8119px;font-family:'Be Vietnam Pro';-inkscape-font-specification:'Be Vietnam Pro, Bold';font-variant-ligatures:normal;font-variant-caps:normal;font-variant-numeric:normal;font-variant-east-asian:normal;fill:#ffffff;stroke-width:0.242055"
         x="7.3738647"
         y="189.66222">Asisti<tspan
   style="fill:#ffffff;fill-opacity:1"
   id="tspan2">2</tspan></tspan></text></g><g
     inkscape:groupmode="layer"
     id="layer2"
     inkscape:label="Celeste"
     style="display:inline;fill:#ffffff;fill-opacity:1"
     transform="translate(-9.0481536,-13.449753)"><path
       style="fill:#ffffff;fill-opacity:1"
       d="m 144.34566,95.901691 c 0,-8.64792 0.29333,-9.62048 3.05804,-10.13914 3.58846,-0.6732 5.81343,6.64428 3.51636,11.56456 -1.08062,2.31467 -4.18096,5.439419 -5.52402,5.567499 l -1.05038,0.10017 z"
       id="path33" /><path
       style="fill:#ffffff;fill-opacity:1"
       d="m 70.577747,116.77794 c -7.872788,-7.87279 -7.622582,-6.86891 -2.696672,-10.81958 1.964531,-1.57559 5.462672,-4.61651 7.773646,-6.757599 8.18377,-7.58215 9.105666,-8.02115 20.139894,-9.59036 8.114675,-1.15401 9.196125,-1.6473 13.626035,-6.21533 6.48015,-6.68217 8.32309,-7.52848 9.15721,-4.2051 1.42729,5.68678 -6.67806,14.87131 -15.77179,17.87171 -5.328939,1.75825 -3.253876,4.219129 4.44009,5.265639 7.61832,1.03623 11.41099,-0.60561 22.54742,-9.760719 4.5297,-3.72381 6.41923,-4.3287 8.31697,-2.66247 2.46467,2.16401 1.9014,3.15626 -6.55893,11.554209 -12.88389,12.78889 -16.15467,14.30704 -29.22536,13.56515 -14.770306,-0.83835 -14.042786,-1.01872 -20.686853,5.12862 -4.370972,4.04419 -3.323907,4.36358 -11.06166,-3.37417 z"
       id="path32"
       inkscape:label="path32" /><path
       id="path30"
       style="fill:#ffffff;fill-opacity:1"
       d="m 104.47996,13.44989 c -2.3253,0.01545 -4.555413,1.560227 -8.037756,4.525821 -1.9273,1.641303 -4.838479,4.115408 -6.469889,5.497856 -10.116506,8.572674 -45.494493,39.085389 -48.04668,41.020752 -6.540625,4.959858 -0.180671,12.875915 6.431649,7.734928 l 2.458248,-1.910994 0.132292,30.618797 c 0.131295,30.38817 0.136612,30.62777 0.686779,31.80943 0.920193,1.9764 3.011341,3.65981 5.266346,4.23954 0.436562,0.11223 12.90836,0.21609 27.715104,0.23099 l 26.921357,0.0274 v -4.7625 -4.7625 H 86.431446 c -24.32456,0 -25.125549,-0.0159 -25.730729,-0.50591 -0.63284,-0.51241 -1.170705,-62.073428 -0.561723,-64.291685 0.207485,-0.75578 0.486074,-0.996882 30.845662,-26.672274 11.379214,-9.623512 13.022304,-10.923881 13.799674,-10.923881 0.91427,0 1.17447,0.212707 25.25789,20.607011 2.6835,2.272432 7.2698,6.155593 10.19163,8.629447 2.92183,2.473854 6.10535,5.152761 7.0745,5.953125 2.1961,1.813627 2.32906,2.183121 2.32906,6.481775 0,1.92086 0.0763,4.394326 0.1695,5.496306 l 0.16898,2.003495 1.72186,0.299723 c 11.62468,2.02435 11.4844,14.52075 -0.31161,27.760578 l -2.6169,2.93729 h -5.33869 c -7.62908,0 -8.57817,0.40647 -12.30881,5.26944 -3.30471,4.30776 -5.16772,5.60529 -11.24272,7.83105 -7.78849,2.85356 -7.97527,18.12034 -0.22169,18.12034 h 1.603 l 0.11989,-2.18281 c 0.58182,-10.60207 15.2926,-9.98317 15.2926,0.64337 v 1.53944 h 7.37423 7.37423 l 0.12092,-2.08721 c 0.6066,-10.47865 14.42979,-10.33882 15.22336,0.154 l 0.15038,1.99212 1.40301,-0.11627 c 4.42566,-0.36701 5.13096,-1.92867 5.13096,-11.36158 v -7.36648 l -8.00365,-0.0403 c -4.402,-0.0222 -8.12271,-0.068 -8.26823,-0.10181 -0.14552,-0.0338 -1.62649,-0.0752 -3.29075,-0.092 l -3.02566,-0.0305 4.50774,-4.56406 c 7.27081,-7.3612 9.5796,-10.0427 12.09435,-14.048237 5.2768,-8.40495 5.11869,-18.602465 -0.36949,-23.837305 l -1.54874,-1.477429 0.97565,-0.501778 c 2.59378,-1.33424 3.84145,-4.257331 2.93161,-6.867281 -0.22067,-0.63302 -2.90696,-3.041086 -10.91407,-9.783899 -5.84174,-4.919349 -10.77268,-9.129263 -10.95798,-9.354985 -0.26314,-0.320531 -0.32307,-2.807204 -0.27337,-11.355896 0.0842,-14.464422 0.85326,-13.28578 -8.57726,-13.147001 -7.48985,0.11022 -6.90545,-0.388905 -7.08432,6.05286 l -0.13229,4.764568 -5.45393,-4.572848 c -2.9997,-2.514904 -8.10479,-6.799998 -11.34453,-9.522933 -4.84182,-4.069461 -7.5997,-6.016625 -10.23503,-5.999116 z m 41.1887,96.22358 v 4.26021 4.26072 h -6.87917 c -7.91659,0 -7.65399,0.10808 -5.78311,-2.38125 3.99668,-5.31785 4.89407,-5.89296 9.42113,-6.03684 z" /><circle
       style="fill:#ffffff;fill-opacity:1;stroke-width:0.264583"
       id="path3"
       cx="128.98016"
       cy="134.81371"
       r="5.5378704" /><circle
       style="fill:#ffffff;fill-opacity:1;stroke-width:0.264583"
       id="path3-7"
       cx="159.07211"
       cy="135.04802"
       r="5.5378704" /></g></svg>
